<?xml version="1.0" encoding="UTF-8" standalone="no"?>
<!-- Created with Inkscape (http://www.inkscape.org/) -->

<svg
   width="210.0589mm"
   height="219.10104mm"
   viewBox="0 0 210.0589 219.10104"
   version="1.1"
   id="svg5"
   xml:space="preserve"
   inkscape:version="1.2.2 (b0a8486541, 2022-12-01)"
   sodipodi:docname="derp_bck.svg"
   xmlns:inkscape="http://www.inkscape.org/namespaces/inkscape"
   xmlns:sodipodi="http://sodipodi.sourceforge.net/DTD/sodipodi-0.dtd"
   xmlns="http://www.w3.org/2000/svg"
   xmlns:svg="http://www.w3.org/2000/svg"><sodipodi:namedview
     id="namedview7"
     pagecolor="#505050"
     bordercolor="#ffffff"
     borderopacity="1"
     inkscape:showpageshadow="0"
     inkscape:pageopacity="0"
     inkscape:pagecheckerboard="1"
     inkscape:deskcolor="#505050"
     inkscape:document-units="mm"
     showgrid="false"
     inkscape:zoom="0.69664703"
     inkscape:cx="404.07838"
     inkscape:cy="457.90765"
     inkscape:window-width="1920"
     inkscape:window-height="1011"
     inkscape:window-x="0"
     inkscape:window-y="0"
     inkscape:window-maximized="1"
     inkscape:current-layer="layer1" /><defs
     id="defs2" /><g
     inkscape:label="Layer 1"
     inkscape:groupmode="layer"
     id="layer1"
     transform="translate(1.8730831,-27.21368)"><path
       style="fill:#000000;stroke-width:0.264583"
       d="m 22.182244,244.66107 c -0.324001,-0.90951 -1.105924,-2.96334 -1.737604,-4.56407 -3.774088,-9.56385 -5.144616,-14.86886 -5.57085,-21.56354 l -0.176877,-2.77812 -1.518521,-1.98438 C 3.0348485,200.51557 -1.5911515,180.66901 -1.8694015,149.21263 c -0.08327,-9.41342 1.266274,-37.68415 1.994387,-41.77921 l 0.160214,-0.90108 0.425849,0.76879 c 0.351374,0.63434 0.434364,1.8099 0.474539,6.72191 0.05269,6.44216 0.209664,7.36201 1.557997,9.12977 0.746127,0.97822 1.165138,0.99556 1.181388,0.0489 0.0055,-0.31884 0.551798,-1.88939 1.214054,-3.49012 2.758965,-6.66864 3.456438,-9.52661 2.744428,-11.24555 -0.529211,-1.27763 -0.890796,-0.81196 -0.83426,1.07441 0.056,1.86855 -0.115642,2.32815 -0.89678,2.4013 -1.409213,0.13198 -1.443643,0.0842 -1.443643,-2.00244 0,-3.14541 0.628543,-5.46098 2.554265,-9.41001 0.957994,-1.964526 2.074976,-4.345776 2.482183,-5.291656 0.9266775,-2.15254 1.3736425,-5.74587 1.0384385,-8.3484 -0.438541,-3.40485 -0.397283,-3.60475 1.118366,-5.41864 1.692633,-2.02569 3.633497,-3.87529 5.374456,-5.12173 3.620524,-2.5921 6.940539,-4.72862 10.023996,-6.4507 1.181531,-0.65988 4.042365,-2.5583 8.684861,-5.76318 2.285315,-1.57764 6.549472,-5.81512 8.6853,-8.63097 0.918972,-1.21156 1.750229,-2.26237 1.847241,-2.33513 0.09701,-0.0728 1.452102,-1.82761 3.011313,-3.899664 3.020232,-4.013624 5.180955,-6.275515 7.622122,-7.979019 2.206818,-1.539965 7.470347,-3.674112 15.41384,-6.249683 8.912077,-2.889621 10.00902,-3.167701 20.24987,-5.133437 0.80036,-0.15363 2.0569,-0.446653 2.79231,-0.651162 1.18318,-0.329029 4.595477,-0.791876 13.082687,-1.774543 3.17458,-0.367561 14.14351,-0.353388 17.46056,0.02256 3.67708,0.416754 8.12652,1.432044 10.92588,2.493112 3.99271,1.513393 8.53497,4.537789 9.98884,6.650925 0.42717,0.620868 0.8717,1.169017 0.98786,1.218109 0.11615,0.04909 0.48288,0.476211 0.81496,0.949154 l 0.60377,0.859895 3.22313,0.0021 c 3.62615,0.0024 5.87718,0.293243 8.35493,1.080056 2.73782,0.869394 4.78638,2.622783 4.78876,4.098758 0.002,1.112708 -0.63997,1.373442 -3.71193,1.508083 -2.3816,0.104263 -3.69509,0.448544 -3.69509,0.968406 0,0.126759 1.29805,0.778372 2.88455,1.44803 3.96807,1.67491 7.31813,3.49612 8.37492,4.55291 0.84002,0.84002 1.45934,2.55061 1.06589,2.94406 -0.14468,0.14468 -1.86849,-0.25353 -3.92484,-0.90666 -0.66017,-0.20968 -0.58214,0.24977 0.36599,2.15485 0.90356,1.81554 3.07662,4.87025 6.57932,9.24869 3.33144,4.16436 4.36299,5.74897 5.31327,8.16193 0.79769,2.02551 0.87092,2.48168 1.05049,6.54294 0.20579,4.65442 0.27868,5.14996 1.08826,7.39884 0.60088,1.66914 2.79478,6.01329 3.8945,7.71151 1.9113,2.95148 3.59702,5.458106 6.36436,9.463686 6.64516,9.6185 9.38266,15.71604 10.58632,23.58012 1.01663,6.64208 1.14701,8.95019 0.97528,17.26591 -0.0909,4.40099 -0.24128,11.61334 -0.33423,16.02744 -0.22487,10.67965 0.0841,15.16932 1.6743,24.3261 0.15081,0.86848 0.42432,1.18763 1.10611,1.29074 0.20104,0.0304 0.88846,0.33142 1.52758,0.6689 l 1.16206,0.61362 -0.0724,3.28244 c -0.066,2.9928 -0.11673,3.28892 -0.57506,3.35585 -0.64411,0.0941 -0.85755,0.4553 -1.06274,1.79872 -0.33456,2.1904 -3.00743,10.467 -4.55877,14.11629 -0.63352,1.49025 -1.15185,2.76754 -1.15185,2.83842 0,0.45912 -7.04763,15.05554 -8.2347,17.05498 -0.29621,0.49892 -1.25504,2.64204 -2.13074,4.7625 -0.87569,2.12046 -1.98247,4.74835 -2.4595,5.83976 -0.47703,1.09141 -0.9987,2.3118 -1.15927,2.71198 -0.24773,0.61742 -0.44639,0.7276 -1.31185,0.7276 -0.56095,0 -1.08564,-0.0657 -1.16598,-0.14607 -0.0803,-0.0803 0.2494,-1.08377 0.73276,-2.22984 1.13344,-2.68751 1.61874,-4.34295 3.53284,-12.05124 1.61821,-6.51673 3.17661,-11.47741 4.4864,-14.28111 0.40814,-0.87366 2.21309,-4.02881 4.01102,-7.01146 5.95342,-9.8764 6.23181,-11.38433 3.71153,-20.10428 -2.35819,-8.15912 -2.5148,-9.84091 -2.31623,-24.87392 0.20976,-15.87988 -0.16896,-20.45559 -2.19313,-26.49731 -0.43715,-1.30481 -0.79482,-2.42514 -0.79482,-2.48962 0,-0.32308 1.73438,-0.0531 2.64584,0.41193 0.57049,0.29104 1.17743,0.52917 1.34876,0.52917 0.38102,0 0.18648,-2.86095 -0.57571,-8.46667 -1.0519,-7.73638 -2.63194,-11.42933 -5.90598,-13.80373 -1.53286,-1.11167 -1.84369,-1.01473 -1.63005,0.50842 0.35568,2.53583 1.59089,5.46711 4.09735,9.72344 1.35679,2.30402 2.31768,5.27668 2.5561,7.90767 0.14077,1.55349 0.10519,2.0142 -0.15554,2.0142 -0.41509,0 -0.71035,-0.35941 -2.49959,-3.04271 -3.13342,-4.69913 -6.44086,-12.39199 -10.636,-24.73854 -2.35134,-6.92015 -4.69292,-11.990256 -9.25691,-20.043546 -2.63347,-4.64684 -5.60056,-10.67791 -6.4377,-13.08565 -0.72961,-2.09847 -0.74041,-2.19631 -0.25126,-2.27749 0.86212,-0.14307 2.69332,1.06305 3.34358,2.20224 0.33201,0.58167 0.9601,2.19996 1.39574,3.59619 0.43564,1.39624 1.06056,2.9331 1.3887,3.41526 0.62505,0.91839 1.95436,2.03702 2.16745,1.82392 0.39289,-0.39288 -3.01127,-8.00779 -5.07374,-11.34966 -1.4897,-2.41381 -4.39353,-6.39345 -6.39472,-8.76385 -2.37071,-2.80808 -10.29722,-10.68469 -10.52409,-10.45782 -0.11392,0.11392 0.064,0.67831 0.39548,1.25419 0.33144,0.57589 0.53083,1.16322 0.44309,1.30519 -0.2661,0.43056 -2.08062,0.2895 -3.1937,-0.24828 -3.52384,-1.70253 -7.44939,-1.98976 -23.39293,-1.71161 -13.72018,0.23936 -17.3353,0.23314 -19.99926,-0.0344 -1.69764,-0.17049 -3.28407,-0.9223 -3.28407,-1.55631 0,-0.2073 0.5352,-0.887 1.18933,-1.51043 0.8238,-0.78512 1.08975,-1.195052 0.86533,-1.333755 -0.17821,-0.110138 -2.05287,-0.134324 -4.1659,-0.05374 -4.629267,0.176533 -5.711777,-0.0749 -6.418367,-1.490781 -0.4532,-0.908154 -0.4513,-0.924722 0.13229,-1.153364 0.33768,-0.132294 3.150217,-0.135062 6.545227,-0.0064 9.47631,0.359008 12.56284,0.303335 14.61961,-0.263694 1.63185,-0.449881 3.90116,-1.741704 3.90127,-2.22083 3e-5,-0.108228 -2.58958,-0.196779 -5.75468,-0.196779 -6.01953,0 -8.27212,-0.243131 -17.264107,-1.863381 -7.48808,-1.349264 -10.90037,-1.708097 -16.34174,-1.718485 -12.374036,-0.02363 -21.323697,2.563146 -28.902014,8.353685 -4.006731,3.061514 -8.425509,8.331104 -11.483872,13.695014 l -0.723506,1.26892 6.699001,-0.0783 c 6.264842,-0.0732 6.766042,-0.044 7.733409,0.45087 0.568923,0.29105 1.0077,0.64823 0.975058,0.79375 -0.03264,0.14553 -1.033904,0.56996 -2.225032,0.94319 -5.961406,1.86796 -10.672445,5.17351 -18.966725,13.30819 -8.82083,8.65111 -11.55246,11.05513 -15.657786,13.77996 -3.086793,2.0488 -3.445285,1.74923 -1.913686,-1.59919 0.529405,-1.1574 0.604946,-1.54708 0.357669,-1.84504 -0.172421,-0.20776 -0.462722,-0.37774 -0.645115,-0.37774 -0.38209,0 -2.8521,5.90979 -4.999718,11.962396 -4.7212365,13.30583 -8.2235425,29.19548 -9.1143835,41.35113 -0.34461,4.70226 -0.363672,15.41632 -0.03489,19.61153 0.489864,6.25064 1.19764,8.7722 6.0774205,21.65176 2.374173,6.26633 3.412633,10.08413 4.753071,17.47422 1.665589,9.18272 2.396286,11.54939 4.860467,15.7427 2.401639,4.08689 6.025973,8.28311 9.702369,11.23331 2.160336,1.7336 7.143674,5.05927 11.1125,7.416 6.359761,3.7765 13.387243,8.86736 12.240607,8.86736 -0.68612,0 -6.433836,-2.33894 -9.985544,-4.06345 -8.633561,-4.19199 -14.861977,-8.72112 -21.514936,-15.64506 l -3.22971,-3.36126 0.0016,1.28228 c 0.0024,1.88882 0.705681,6.23253 1.454502,8.98218 0.861425,3.16315 2.104247,6.20618 4.483701,10.9783 1.07111,2.14816 1.879407,3.97381 1.796216,4.05701 -0.08322,0.0832 -0.889394,0.15125 -1.791528,0.15125 h -1.640242 z m -8.20959,-38.68723 c -0.959766,-2.23905 -2.928746,-8.70674 -5.0290335,-16.51933 -1.157794,-4.30674 -2.516029,-9.09702 -3.0183,-10.64509 -1.102554,-3.39821 -3.049679,-8.43013 -3.262079,-8.43013 -0.208559,0 0.125045,7.00651 0.466116,9.78959 1.152359,9.40304 3.892757,18.24026 7.1380515,23.01875 1.018085,1.49906 3.47338,3.96875 3.945625,3.96875 0.146584,0 0.03841,-0.53215 -0.24038,-1.18254 z m 4.0528,-121.039946 c 1.101358,-1.03888 2.293734,-2.77797 2.293734,-3.34542 0,-0.3741 -2.719991,0.10746 -3.376798,0.59783 -1.612812,1.20414 -2.262158,3.13172 -1.403514,4.16632 0.410941,0.49516 0.529006,0.4278 2.486578,-1.41873 z M 145.44422,43.496797 c 1.1548,-0.318569 1.05351,-0.335735 -2.09378,-0.354812 -3.32492,-0.02016 -4.49792,0.114412 -4.49792,0.515991 0,0.557297 4.37507,0.450318 6.5917,-0.161179 z m -10.90824,-2.08979 c 1.77325,-0.209109 4.42716,-0.684324 5.89758,-1.056035 1.47042,-0.371713 2.73131,-0.675841 2.80198,-0.675841 0.3303,0 -0.79687,-1.674294 -2.05817,-3.057206 -4.65851,-5.107673 -12.88541,-7.498963 -24.68214,-7.174289 -10.11788,0.278468 -19.887127,2.078825 -30.530497,5.626411 -4.637705,1.545815 -5.569649,1.93638 -4.659086,1.952566 6.714406,0.119353 13.731366,0.86314 28.574993,3.028909 4.51115,0.658202 9.45224,1.302497 10.98021,1.431769 4.37595,0.370221 10.16243,0.337942 13.67513,-0.07628 z M 108.7401,245.89733 c -4.46243,-0.75914 -8.61941,-2.54058 -15.925077,-6.82461 -8.25059,-4.83811 -12.153181,-6.39248 -16.801042,-6.6917 -2.465229,-0.1587 -5.784414,0.29507 -8.078357,1.10442 -1.044334,0.36846 -1.151787,0.35798 -1.937604,-0.18898 -3.703238,-2.57765 -9.443628,-8.07276 -12.392425,-11.86293 -6.13369,-7.88379 -9.751219,-17.13814 -10.561873,-27.01936 -0.351795,-4.28809 -0.114213,-10.38478 0.560279,-14.37758 0.455263,-2.69502 0.556622,-2.96659 1.369565,-3.66936 1.293458,-1.11817 4.297384,-2.44261 6.631202,-2.92371 3.500858,-0.72169 6.696324,-0.93823 13.91579,-0.94297 l 6.969077,-0.005 2.026756,-1.80455 c 7.350821,-6.54489 18.200272,-13.08405 45.109829,-27.18853 4.18447,-2.19327 6.06456,-3.34782 7.80521,-4.79314 3.32281,-2.75904 4.34704,-3.21261 7.97317,-3.53081 8.61615,-0.7561 20.90771,1.67876 28.89936,5.72474 1.89823,0.96102 4.94061,3.0473 5.85339,4.0139 l 0.74545,0.7894 -0.90571,1.4221 c -5.50801,8.64833 -8.5131,18.75055 -12.62236,42.43252 -4.10954,23.68358 -6.90846,33.19004 -12.37279,42.02377 -3.88763,6.28483 -9.18996,10.94398 -15.60284,13.71021 l -2.05595,0.88685 -8.20209,0.0445 c -6.03254,0.0327 -8.78371,-0.0545 -10.40096,-0.32958 z m 17.14784,-3.56267 c 3.00553,-0.83638 5.02708,-1.81179 5.02708,-2.42558 0,-0.87087 -1.31849,-4.49871 -2.18807,-6.02047 -1.38936,-2.43141 -3.76684,-4.56987 -6.5883,-5.92597 -1.35763,-0.65253 -3.1828,-1.32283 -4.05592,-1.48956 -0.87313,-0.16673 -1.79586,-0.3625 -2.05052,-0.43505 -0.43397,-0.12362 -0.46302,0.3914 -0.46302,8.20832 v 8.34022 l 0.99218,0.1619 c 0.54571,0.089 1.17079,0.20804 1.38907,0.26445 1.02269,0.26427 6.11386,-0.17077 7.9375,-0.67826 z m -12.89814,-0.31943 c 0.2131,-0.57275 -0.06,-2.66512 -0.50615,-3.87709 -1.51984,-4.12915 -6.68755,-5.81239 -11.419,-3.71945 -0.67737,0.29963 -1.500487,0.79741 -1.829147,1.10617 -0.32866,0.30876 -0.65397,0.50497 -0.72291,0.43603 -0.069,-0.0689 0.28861,-1.25012 0.79456,-2.62483 0.67877,-1.84429 1.168597,-2.73171 1.868667,-3.38545 1.17073,-1.09325 1.29174,-1.07993 6.45587,0.71098 2.11005,0.73176 4.19364,1.36815 4.6302,1.41419 l 0.79375,0.0837 -0.0957,-4.23333 c -0.091,-4.02897 -0.0678,-4.26846 0.48222,-4.96094 0.48607,-0.612 0.7745,-0.72576 1.81545,-0.71599 1.57881,0.0148 2.7606,0.44268 5.05985,1.83191 1.01433,0.61286 2.32543,1.17884 2.91358,1.25772 l 1.06935,0.14343 v -4.22015 c 0,-4.67909 0.32447,-6.36372 1.49324,-7.75273 0.37755,-0.44869 1.02355,-0.99012 1.43555,-1.20317 1.48756,-0.76925 5.04527,-0.3601 8.26,0.94992 1.04944,0.42766 1.98307,0.77797 2.07472,0.77847 0.0916,5.3e-4 0.21764,-0.70425 0.27998,-1.56611 0.0824,-1.13939 0.32835,-1.91556 0.9012,-2.84427 1.17682,-1.90786 2.74976,-2.71809 7.83571,-4.03626 2.55574,-0.66238 4.44485,-1.29117 4.64095,-1.54473 0.19793,-0.25591 0.33073,-1.23345 0.33073,-2.43451 0,-2.37981 0.31175,-5.07458 1.21004,-10.45967 1.76965,-10.6088 4.31117,-19.27379 10.79666,-36.80993 1.83653,-4.96576 3.33913,-9.14998 3.33913,-9.29825 0,-0.37477 -0.66339,-0.59105 -1.80757,-0.58931 -2.38409,0.004 -4.40508,1.15492 -7.9023,4.50168 -4.702,4.49971 -6.50333,5.56306 -9.72253,5.73931 -2.4023,0.13153 -3.3794,-0.40668 -5.51187,-3.03609 -2.16566,-2.67034 -3.03921,-3.28803 -4.71403,-3.33333 l -1.35271,-0.0366 -0.98789,3.07415 c -2.9482,9.17439 -7.44528,14.0085 -14.33806,15.41262 -1.69898,0.34609 -3.82469,0.52751 -5.31373,0.4535 -0.76864,-0.0382 -2.2629,-1.56754 -3.77495,-3.86357 -1.25983,-1.91303 -3.06795,-3.8319 -3.61075,-3.8319 -0.0981,0 -0.25827,0.74414 -0.35598,1.65364 -0.16853,1.56863 -1.29943,7.37802 -2.6076,13.39511 l -0.59692,2.74563 -1.31145,0.66678 c -3.398577,1.72794 -7.372287,2.60376 -10.704157,2.35922 -2.73036,-0.20039 -4.26374,-0.80159 -5.93103,-2.3254 l -1.41434,-1.29262 -0.73734,2.70976 c -1.76144,6.4734 -3.542354,9.12853 -6.784222,10.11448 -1.257935,0.38257 -1.262785,0.40917 -0.435049,2.38486 1.526765,3.64415 4.916717,7.24858 9.350741,9.94234 l 1.81784,1.10438 0.92953,-0.49628 c 3.41013,-1.82067 8.09431,-6.42538 10.73402,-10.55191 l 0.929947,-1.45374 h 1.95841 c 1.91197,0 4.01732,0.46295 8.51232,1.8718 1.83886,0.57634 1.87981,0.57767 2.89905,0.094 1.23448,-0.5858 2.76435,-2.10689 3.65558,-3.6346 0.35594,-0.61014 1.27051,-2.83574 2.03238,-4.9458 0.76187,-2.11005 1.74765,-4.52659 2.19064,-5.37009 0.97108,-1.84907 2.58854,-3.53199 4.0259,-4.18882 1.23976,-0.56654 2.09867,-0.64054 1.90967,-0.16452 -0.0722,0.1819 -0.79586,2.03012 -1.60807,4.10717 -3.60984,9.2313 -6.92075,14.00312 -11.17482,16.10559 -3.2284,1.59557 -7.07227,1.53487 -11.28163,-0.17814 -1.04153,-0.42385 -1.91736,-0.74437 -1.9463,-0.71227 -0.0289,0.0321 -0.23419,0.49659 -0.45612,1.03219 -0.79071,1.90831 -3.170197,5.27054 -4.727137,6.67949 -1.97285,1.78533 -4.48577,3.12176 -7.21178,3.83539 -2.65249,0.69439 -3.59596,0.69121 -4.98779,-0.0168 -2.96689,-1.50927 -4.854369,-3.43024 -9.582061,-9.7521 -2.852476,-3.81433 -6.162548,-7.40834 -6.823062,-7.40834 -0.789101,0 -0.980691,0.65403 -0.980691,3.34776 0,2.77936 -0.275646,3.9049 -1.028025,4.19773 -0.908461,0.35359 -5.01831,0.44316 -6.909475,0.15058 -3.527687,-0.54574 -6.334303,-2.19502 -8.563229,-5.03209 -1.33603,-1.70055 -3.169132,-4.90564 -3.035184,-5.30687 0.194926,-0.58387 3.384198,1.36252 6.001753,3.66283 3.38206,2.97216 5.03836,3.83539 7.609261,3.96579 2.096029,0.10631 2.206027,0.003 2.219515,-2.07531 0.0033,-0.50932 0.309838,-2.23573 0.681183,-3.83646 1.01713,-4.38447 1.434579,-7.17323 1.435693,-9.59114 l 0.001,-2.18282 h -2.935002 c -3.411956,0 -7.058194,0.65895 -10.338123,1.8683 -2.71176,0.99985 -5.199697,2.31011 -5.518862,2.90648 -0.454501,0.84924 -1.051763,6.62366 -1.051763,10.16859 0,15.24841 6.522847,28.49143 18.108136,36.76406 3.113955,2.22357 5.072708,3.26965 5.438111,2.90424 0.474432,-0.47443 0.06874,-1.01023 -2.255885,-2.97938 -1.952884,-1.65425 -2.88357,-2.92311 -2.456963,-3.34971 0.169481,-0.16948 4.853448,1.06505 7.095768,1.8702 3.940968,1.41509 7.867745,3.3246 14.552085,7.07635 10.6641,5.9855 15.627217,8.07334 22.489577,9.46072 2.77778,0.56159 4.13753,0.61965 4.29978,0.18359 z m 23.87835,-5.97959 c 4.31743,-2.04968 5.98705,-6.86748 4.21541,-12.16386 -0.8569,-2.56171 -1.82302,-4.07483 -3.81476,-5.97463 -1.82848,-1.74408 -3.7806,-2.72122 -6.25582,-3.13137 -2.04423,-0.33874 -2.09906,-0.29973 -3.04143,2.16435 -1.62475,4.24837 -0.39451,9.84348 3.43588,15.62625 1.57512,2.37798 3.13687,4.23341 3.5631,4.23312 0.17057,-1.1e-4 1.02449,-0.33935 1.89762,-0.75386 z m 10.32388,-12.49845 c 0.0987,-0.44941 0.77148,-2.38417 1.49506,-4.29948 1.64252,-4.3477 2.60006,-8.23605 2.60051,-10.55998 2.6e-4,-2.02359 0.10955,-1.95977 -2.35758,-1.37823 -3.6889,0.86953 -6.72623,2.96864 -7.82672,5.40909 -0.54663,1.2122 -0.38982,1.85543 0.4529,1.85786 0.33199,0.001 0.93983,0.22343 1.35077,0.49437 0.8704,0.57388 3.12316,3.48125 2.99827,3.86952 -0.16457,0.5116 -0.96496,0.4259 -2.30408,-0.2467 -1.51627,-0.76159 -2.41862,-0.85834 -2.87513,-0.30829 -0.24645,0.29696 -0.13406,0.49306 0.56292,0.98215 0.47897,0.33611 1.83241,1.59789 3.00763,2.80395 1.17521,1.20607 2.26708,2.19284 2.42637,2.19284 0.15928,0 0.37037,-0.36769 0.46908,-0.8171 z M 75.104481,187.61085 c 2.455746,-1.08609 3.647987,-2.75938 5.841688,-8.19871 0.84278,-2.08969 1.903814,-4.37835 2.357854,-5.08592 0.80159,-1.24916 2.42848,-2.88859 2.86649,-2.88859 0.48259,0 2.03562,1.25707 2.53717,2.05367 0.29451,0.46774 0.95218,1.51834 1.46151,2.33466 1.60235,2.56816 3.74249,3.14673 6.27252,1.69572 3.750087,-2.15073 5.920657,-6.03792 7.205577,-12.90418 0.61283,-3.27476 1.42196,-9.32425 1.26777,-9.47845 -0.15946,-0.15945 -3.12599,1.09446 -5.143897,2.17426 -2.88992,1.54643 -6.47554,3.97864 -11.85093,8.03876 -2.7649,2.08837 -6.011074,4.43964 -7.213724,5.22504 -2.851785,1.8624 -7.293962,4.05037 -10.116487,4.98283 -1.236927,0.40864 -2.344454,0.86868 -2.461175,1.02231 -0.116718,0.15363 -0.16134,1.09754 -0.09916,2.09757 0.09686,1.55779 0.324475,2.23997 1.589035,4.7625 0.811789,1.61935 1.557483,3.30145 1.657096,3.73802 0.09962,0.43656 0.239884,0.89707 0.311714,1.02336 0.191852,0.33732 2.166291,0.005 3.516949,-0.59285 z m 46.611539,-25.93713 c 3.39335,-1.17038 7.28455,-4.47076 9.85662,-8.36005 1.81295,-2.7414 2.71273,-4.74836 3.4089,-7.60351 0.39958,-1.6388 0.68061,-2.31279 0.96529,-2.3151 0.7483,-0.006 3.53113,2.09497 6.82922,5.15611 1.69565,1.57382 3.45994,2.85862 4.53959,3.30582 0.69506,0.2879 0.91417,0.24784 1.94332,-0.35528 0.98355,-0.5764 3.57359,-2.54441 4.56988,-3.47237 0.16057,-0.14955 1.61933,-1.45635 3.24169,-2.90398 1.62236,-1.44763 2.85589,-2.72592 2.74118,-2.84063 -0.71587,-0.71587 -6.29297,-1.5987 -12.22794,-1.93565 -6.13834,-0.34848 -10.84446,-1.03465 -12.99334,-1.89445 l -0.99861,-0.39957 -1.56861,1.30541 c -2.95027,2.45525 -6.97097,4.55405 -14.33241,7.48152 -2.25285,0.8959 -5.42574,2.27547 -7.05085,3.0657 -3.36975,1.63857 -3.2226,1.26454 -1.81749,4.61992 1.7319,4.13575 3.67843,6.25027 6.74595,7.32813 2.00182,0.7034 3.72871,0.65227 6.14761,-0.18202 z M 44.528564,149.60816 c -5.014342,-1.12494 -9.651022,-3.81736 -13.529242,-7.85613 l -1.604333,-1.67074 -0.151175,-3.57027 c -0.08315,-1.96365 -0.519684,-6.18964 -0.970081,-9.3911 -1.121656,-7.97279 -1.356725,-11.16214 -1.05727,-14.34472 0.331528,-3.52344 1.055428,-6.23547 2.446234,-9.16462 0.931675,-1.96218 1.470314,-2.71663 2.848047,-3.989166 8.249256,-7.61938 22.141252,-9.6922 35.412799,-5.28394 7.399603,2.45784 13.57933,6.920126 16.43651,11.868566 0.83829,1.45185 0.83953,1.56189 0.0704,6.2295 -0.93556,5.67792 -4.23304,13.70115 -7.89065,19.19904 -5.283878,7.94238 -12.078865,13.89053 -18.997719,16.63007 -4.096888,1.62218 -9.352767,2.16479 -13.01356,1.34351 z m 10.082895,-2.55024 c 1.812253,-0.26954 2.29358,-0.47578 4.402307,-1.88629 4.058959,-2.71499 7.706257,-6.69299 12.386477,-13.50956 1.082346,-1.5764 2.730711,-3.95765 3.663029,-5.29167 6.246156,-8.93737 7.962171,-12.23649 7.962171,-15.30769 0,-1.73159 -0.50745,-2.83878 -1.813379,-3.95661 -1.182052,-1.0118 -3.672128,-1.9996 -4.367736,-1.73267 -0.808609,0.31029 -0.438216,0.95005 1.418611,2.4503 1.314122,1.06177 1.852083,1.67167 1.852083,2.09977 0,0.75397 -0.436731,0.92454 -2.367208,0.92454 -2.565268,0 -3.641842,-1.32404 -4.343059,-5.34139 -0.533826,-3.05836 -0.92415,-3.87416 -2.680753,-5.602916 -2.517622,-2.47772 -5.305999,-3.92956 -9.511173,-4.95226 -3.037512,-0.73872 -8.706819,-0.71773 -12.248566,0.0453 -7.943778,1.71152 -14.263317,6.273306 -16.479504,11.895816 -0.298815,0.7581 -0.509169,1.40994 -0.467455,1.44853 0.245041,0.22668 4.232976,0.65717 6.21194,0.67056 3.092212,0.0209 4.848223,0.32839 5.284698,0.9253 1.380485,1.88793 1.867942,5.58741 1.051576,7.98074 -1.233985,3.61765 -5.880053,6.42402 -10.635237,6.42402 h -1.90328 l -0.165365,0.82683 c -0.09095,0.45475 -0.163298,2.03233 -0.160771,3.50572 0.01651,9.62012 5.163476,16.46092 13.75374,18.27996 2.143236,0.45384 6.472706,0.50283 9.156854,0.10362 z M 35.459504,121.01919 c 4.12882,-1.06988 6.28391,-3.25258 6.289458,-6.37005 0.0011,-0.62915 -0.24761,-1.05414 -1.031364,-1.76222 -1.268545,-1.14605 -3.716912,-1.75607 -7.408993,-1.84598 l -2.488705,-0.0606 -0.319897,1.32292 c -0.175943,0.7276 -0.626377,2.3531 -1.000964,3.6122 -0.694375,2.33403 -1.156761,5.27684 -0.89553,5.69952 0.200666,0.32468 4.869564,-0.081 6.855995,-0.59578 z m 112.479486,7.41017 c -7.84628,-1.14472 -16.41152,-4.85951 -23.60759,-10.23872 -6.87281,-5.13758 -13.51387,-13.66489 -13.52213,-17.36281 -0.003,-1.458366 0.69713,-6.277976 1.2161,-8.368326 2.74529,-11.05785 9.44111,-19.18303 20.34486,-24.68788 3.16864,-1.59971 7.70657,-3.50068 7.89851,-3.30875 0.25919,0.25919 -0.39044,1.5384 -1.23401,2.42996 -0.48838,0.51616 -2.09855,1.49929 -3.8235,2.33452 -2.89339,1.401 -5.66361,3.25873 -8.92642,5.98612 -2.37013,1.9812 -6.71327,6.43448 -8.14489,8.35146 -3.89191,5.21134 -5.66863,11.12478 -4.59672,15.29926 1.37394,5.350796 7.81589,14.407706 13.48757,18.962536 4.03095,3.2372 11.67595,5.95496 19.02122,6.76196 10.83226,1.19009 20.20866,-0.8927 24.84621,-5.51912 1.9499,-1.94522 2.72252,-3.38687 3.32378,-6.20186 1.43738,-6.72952 -2.45003,-19.670276 -7.3526,-24.476006 -0.62693,-0.61454 -1.36937,-1.09157 -1.69892,-1.09157 -0.32194,0 -1.82104,0.58888 -3.33133,1.30862 -8.51415,4.05747 -14.7463,4.24045 -17.65457,0.51834 -0.41616,-0.53261 -0.5266,-1.30484 -0.6775,-4.73738 -0.22128,-5.0333 0.0424,-6.60198 1.32562,-7.88516 0.65733,-0.65732 1.07071,-0.86122 1.61851,-0.7983 l 0.73571,0.0845 0.0795,5.55625 c 0.0437,3.05594 0.1628,5.63441 0.26459,5.72994 0.53205,0.49934 4.17394,1.35143 6.30356,1.47484 3.70536,0.21472 6.53306,-0.66278 8.83375,-2.74131 l 1.04262,-0.94194 -2.04964,-2.28993 c -1.12731,-1.25946 -3.70255,-4.43306 -5.72276,-7.05243 -4.10493,-5.32239 -7.84439,-9.19688 -10.59754,-10.98021 -1.82914,-1.18481 -1.84914,-1.19048 -4.09715,-1.16179 -1.57672,0.0201 -3.25594,0.27985 -5.55968,0.8599 -1.81536,0.45708 -3.62133,0.83106 -4.01326,0.83106 -0.94204,0 -1.54963,-0.24845 -1.54963,-0.63365 0,-0.5196 3.38198,-2.57435 5.38206,-3.26991 1.60878,-0.55947 2.21686,-0.63574 4.26633,-0.53508 5.49882,0.27006 9.52362,3.16589 17.93662,12.9053 7.52741,8.71421 11.78623,14.799 15.27778,21.82813 3.35191,6.747986 4.49673,10.758106 4.49729,15.753256 5.3e-4,5.03125 -1.13601,8.00879 -4.23779,11.10195 -4.15715,4.1456 -11.66047,6.65268 -19.70666,6.58459 -1.74625,-0.0148 -4.26531,-0.18594 -5.59791,-0.38036 z"
       id="path302" /></g></svg>
